<svg xmlns="http://www.w3.org/2000/svg" class="graphdiagram" viewBox="-807.0831438811734 -168.48342641914672 2328.3820291106135 1142.9687825191422"><g class="layer relationships"><g class="related-pair"><g class="relationship" transform="translate(-182.21299846649168,92.88634350776672) rotate(0)"><path class="relationship" d="M 108.24528049311195 4 L 810.3764441696687 4 L 810.3764441696687 16 L 842.3764441696687 0 L 810.3764441696687 -16 L 810.3764441696687 -4 L 108.24528049311195 -4 Z" fill="rgb(0, 0, 0)" stroke="rgb(51, 51, 51)" stroke-width="0px"/><text class="type" text-anchor="middle" baseline-shift="30%" alignment-baseline="alphabetic" x="459.31086233139035" y="0" font-size="50px" font-family="&quot;Gill Sans&quot;, &quot;Gill Sans MT&quot;, Calibri, sans-serif">MARRIED</text></g></g><g class="related-pair"><g class="relationship" transform="translate(-182.21299846649168,92.88634350776672) rotate(38.812140313288786)"><path class="relationship" d="M 108.24528049311195 4 L 484.27451945320604 4 L 484.27451945320604 16 L 516.274519453206 0 L 484.27451945320604 -16 L 484.27451945320604 -4 L 108.24528049311195 -4 Z" fill="rgb(0, 0, 0)" stroke="rgb(51, 51, 51)" stroke-width="0px"/><text class="type" text-anchor="middle" baseline-shift="30%" alignment-baseline="alphabetic" x="296.259899973159" y="0" font-size="50px" font-family="&quot;Gill Sans&quot;, &quot;Gill Sans MT&quot;, Calibri, sans-serif">LIVES_AT</text></g></g><g class="related-pair"><g class="relationship" transform="translate(768.4087261962891,92.88634350776672) rotate(138.2643446645047)"><path class="relationship" d="M 108.24528049311195 4 L 446.7613654413481 4 L 446.7613654413481 16 L 478.7613654413481 0 L 446.7613654413481 -16 L 446.7613654413481 -4 L 108.24528049311195 -4 Z" fill="rgb(0, 0, 0)" stroke="rgb(51, 51, 51)" stroke-width="0px"/><text class="type" text-anchor="middle" baseline-shift="30%" alignment-baseline="alphabetic" transform="rotate(180)" x="-277.50332296723" y="0" font-size="50px" font-family="&quot;Gill Sans&quot;, &quot;Gill Sans MT&quot;, Calibri, sans-serif">LIVES_AT</text></g></g></g><g class="layer nodes"><circle class="node node-id-0" r="93.24528049311195" fill="rgb(255, 255, 255)" stroke="rgb(0, 0, 0)" stroke-width="8px" cx="-182.21299846649168" cy="92.88634350776672"/><g class="caption"><text class="caption node" text-anchor="middle" alignment-baseline="central" x="-182.21299846649168" y="92.88634350776672" fill="rgb(51, 51, 51)" font-size="50px" font-family="&quot;Gill Sans&quot;, &quot;Gill Sans MT&quot;, Calibri, sans-serif">Person</text></g><circle class="node node-id-1" r="93.24528049311195" fill="rgb(255, 255, 255)" stroke="rgb(0, 0, 0)" stroke-width="8px" cx="768.4087261962891" cy="92.88634350776672"/><g class="caption"><text class="caption node" text-anchor="middle" alignment-baseline="central" x="768.4087261962891" y="92.88634350776672" fill="rgb(51, 51, 51)" font-size="50px" font-family="&quot;Gill Sans&quot;, &quot;Gill Sans MT&quot;, Calibri, sans-serif">Person</text></g><circle class="node node-id-2" r="110.25962520157903" fill="rgb(255, 255, 255)" stroke="rgb(0, 0, 0)" stroke-width="8px" cx="317.6737284851074" cy="494.9800129127502"/><g class="caption"><text class="caption node" text-anchor="middle" alignment-baseline="central" x="317.6737284851074" y="494.9800129127502" fill="rgb(51, 51, 51)" font-size="50px" font-family="&quot;Gill Sans&quot;, &quot;Gill Sans MT&quot;, Calibri, sans-serif">Location</text></g></g><g class="layer properties"><g class="speech-bubble node-speech-bubble" transform="translate(-275.4582789596036,92.88634350776672) "><path class="speech-bubble-outline" transform="scale(-1,1) " d="M 0 0 L 20 -10 L 20 -50 A 10 10 0 0 1 30 -60 L 484.9072265625 -60 A 10 10 0 0 1 494.9072265625 -50 L 494.9072265625 50 A 10 10 0 0 1 484.9072265625 60 L 30 60 A 10 10 0 0 1 20 50 L 20 10 Z" fill="rgb(255, 255, 255)" stroke="rgb(0, 0, 0)" stroke-width="3px"/><text class="speech-bubble-content property-key" x="-275.41015625" y="-25" alignment-baseline="central" text-anchor="end" font-size="50px" font-family="&quot;Gill Sans&quot;, &quot;Gill Sans MT&quot;, Calibri, sans-serif" xml:space="preserve">name: </text><text class="speech-bubble-content property-key" x="-275.41015625" y="25" alignment-baseline="central" text-anchor="end" font-size="50px" font-family="&quot;Gill Sans&quot;, &quot;Gill Sans MT&quot;, Calibri, sans-serif" xml:space="preserve">birthyear: </text><text class="speech-bubble-content property-value" x="-275.41015625" y="-25" alignment-baseline="central" font-size="50px" font-family="&quot;Gill Sans&quot;, &quot;Gill Sans MT&quot;, Calibri, sans-serif">"Tom Jones"</text><text class="speech-bubble-content property-value" x="-275.41015625" y="25" alignment-baseline="central" font-size="50px" font-family="&quot;Gill Sans&quot;, &quot;Gill Sans MT&quot;, Calibri, sans-serif">1990</text></g><g class="speech-bubble node-speech-bubble" transform="translate(861.6540066894011,92.88634350776672) "><path class="speech-bubble-outline" transform="scale(1,1) " d="M 0 0 L 20 -10 L 20 -50 A 10 10 0 0 1 30 -60 L 499.62890625 -60 A 10 10 0 0 1 509.62890625 -50 L 509.62890625 50 A 10 10 0 0 1 499.62890625 60 L 30 60 A 10 10 0 0 1 20 50 L 20 10 Z" fill="rgb(255, 255, 255)" stroke="rgb(0, 0, 0)" stroke-width="3px"/><text class="speech-bubble-content property-key" x="239.4970703125" y="-25" alignment-baseline="central" text-anchor="end" font-size="50px" font-family="&quot;Gill Sans&quot;, &quot;Gill Sans MT&quot;, Calibri, sans-serif" xml:space="preserve">name: </text><text class="speech-bubble-content property-key" x="239.4970703125" y="25" alignment-baseline="central" text-anchor="end" font-size="50px" font-family="&quot;Gill Sans&quot;, &quot;Gill Sans MT&quot;, Calibri, sans-serif" xml:space="preserve">birthyear: </text><text class="speech-bubble-content property-value" x="239.4970703125" y="-25" alignment-baseline="central" font-size="50px" font-family="&quot;Gill Sans&quot;, &quot;Gill Sans MT&quot;, Calibri, sans-serif">"Mary Jones"</text><text class="speech-bubble-content property-value" x="239.4970703125" y="25" alignment-baseline="central" font-size="50px" font-family="&quot;Gill Sans&quot;, &quot;Gill Sans MT&quot;, Calibri, sans-serif">1994</text></g><g class="speech-bubble relationship-speech-bubble" transform="translate(277.09786386489867,92.88634350776672) "><path class="speech-bubble-outline" transform="scale(1,1) " d="M 0 0 L -10 20 L -112.95166015625 20 A 10 10 0 0 0 -122.95166015625 30 L -122.95166015625 80 A 10 10 0 0 0 -112.95166015625 90 L 112.95166015625 90 A 10 10 0 0 0 122.95166015625 80 L 122.95166015625 30 A 10 10 0 0 0 112.95166015625 20 L 10 20 Z" fill="rgb(255, 255, 255)" stroke="rgb(0, 0, 0)" stroke-width="3px"/><text class="speech-bubble-content property-key" x="12.95166015625" y="55" alignment-baseline="central" text-anchor="end" font-size="50px" font-family="&quot;Gill Sans&quot;, &quot;Gill Sans MT&quot;, Calibri, sans-serif" xml:space="preserve">since: </text><text class="speech-bubble-content property-value" x="12.95166015625" y="55" alignment-baseline="central" font-size="50px" font-family="&quot;Gill Sans&quot;, &quot;Gill Sans MT&quot;, Calibri, sans-serif">2015</text></g><g class="speech-bubble node-speech-bubble" transform="translate(317.6737284851074,605.2396381143293) "><path class="speech-bubble-outline" transform="scale(1,1) " d="M 0 0 L -10 20 L -267.66357421875 20 A 10 10 0 0 0 -277.66357421875 30 L -277.66357421875 80 A 10 10 0 0 0 -267.66357421875 90 L 267.66357421875 90 A 10 10 0 0 0 277.66357421875 80 L 277.66357421875 30 A 10 10 0 0 0 267.66357421875 20 L 10 20 Z" fill="rgb(255, 255, 255)" stroke="rgb(0, 0, 0)" stroke-width="3px"/><text class="speech-bubble-content property-key" x="-89.75830078125" y="55" alignment-baseline="central" text-anchor="end" font-size="50px" font-family="&quot;Gill Sans&quot;, &quot;Gill Sans MT&quot;, Calibri, sans-serif" xml:space="preserve">address: </text><text class="speech-bubble-content property-value" x="-89.75830078125" y="55" alignment-baseline="central" font-size="50px" font-family="&quot;Gill Sans&quot;, &quot;Gill Sans MT&quot;, Calibri, sans-serif">"123 Main Street"</text></g></g><g class="layer overlay"><circle class="node overlay" r="97.24528049311195" stroke="none" fill="rgba(255, 255, 255, 0)" cx="-182.21299846649168" cy="92.88634350776672"/><circle class="node ring" r="102.24528049311195" fill="none" stroke="rgba(255, 255, 255, 0)" stroke-width="10px" cx="-182.21299846649168" cy="92.88634350776672"/><circle class="node overlay" r="97.24528049311195" stroke="none" fill="rgba(255, 255, 255, 0)" cx="768.4087261962891" cy="92.88634350776672"/><circle class="node ring" r="102.24528049311195" fill="none" stroke="rgba(255, 255, 255, 0)" stroke-width="10px" cx="768.4087261962891" cy="92.88634350776672"/><path class="relationship overlay" fill="rgba(255, 255, 255, 0)" stroke="rgba(255, 255, 255, 0)" stroke-width="10px" transform="translate(-182.21299846649168,92.88634350776672) rotate(0)" d="M 108.24528049311195 4 L 810.3764441696687 4 L 810.3764441696687 16 L 842.3764441696687 0 L 810.3764441696687 -16 L 810.3764441696687 -4 L 108.24528049311195 -4 Z"/><circle class="node overlay" r="114.25962520157903" stroke="none" fill="rgba(255, 255, 255, 0)" cx="317.6737284851074" cy="494.9800129127502"/><circle class="node ring" r="119.25962520157903" fill="none" stroke="rgba(255, 255, 255, 0)" stroke-width="10px" cx="317.6737284851074" cy="494.9800129127502"/><path class="relationship overlay" fill="rgba(255, 255, 255, 0)" stroke="rgba(255, 255, 255, 0)" stroke-width="10px" transform="translate(-182.21299846649168,92.88634350776672) rotate(38.812140313288786)" d="M 108.24528049311195 4 L 484.27451945320604 4 L 484.27451945320604 16 L 516.274519453206 0 L 484.27451945320604 -16 L 484.27451945320604 -4 L 108.24528049311195 -4 Z"/><path class="relationship overlay" fill="rgba(255, 255, 255, 0)" stroke="rgba(255, 255, 255, 0)" stroke-width="10px" transform="translate(768.4087261962891,92.88634350776672) rotate(138.2643446645047)" d="M 108.24528049311195 4 L 446.7613654413481 4 L 446.7613654413481 16 L 478.7613654413481 0 L 446.7613654413481 -16 L 446.7613654413481 -4 L 108.24528049311195 -4 Z"/></g></svg>